<?xml version="1.0" encoding="iso-8859-1"?>
<!-- Generator: Adobe Illustrator 19.0.0, SVG Export Plug-In . SVG Version: 6.00 Build 0)  -->
<svg version="1.1" id="Capa_1" xmlns="http://www.w3.org/2000/svg" xmlns:xlink="http://www.w3.org/1999/xlink" x="0px" y="0px"
	 viewBox="0 0 511.611 511.611" style="enable-background:new 0 0 511.611 511.611;" xml:space="preserve">
<path style="fill:#965353;" d="M402.826,227.832h-51.094H244.533h-7.846c-4.113,84.549,27.112,155.627,27.112,199.843
	c0,49.884-7.994,47.963-7.994,79.938h127.902c0-31.976-7.994-30.055-7.994-79.938C375.713,383.436,406.814,312.334,402.826,227.832z
	"/>
<g style="opacity:0.3;">
	<path style="fill:#FFFFFF;" d="M252.675,227.832h-8.143h-7.846c-4.113,84.549,27.112,155.627,27.112,199.843
		c0,49.884-7.994,47.963-7.994,79.938h15.988c0-31.976,7.993-30.055,7.993-79.938C279.786,383.459,248.561,312.381,252.675,227.832z
		"/>
</g>
<rect x="39.966" y="179.866" style="fill:#ED5565;" width="151.88" height="127.9"/>
<g>
	<path style="fill:#FFCE54;" d="M143.891,243.82c0,15.457-12.525,27.975-27.979,27.975c-15.452,0-27.979-12.519-27.979-27.975
		s12.526-27.979,27.979-27.979C131.366,215.842,143.891,228.364,143.891,243.82z"/>
	<path style="fill:#FFCE54;" d="M347.696,315.761c0,15.457-12.529,27.979-27.979,27.979s-27.979-12.521-27.979-27.979
		s12.529-27.979,27.979-27.979S347.696,300.304,347.696,315.761z"/>
</g>
<g style="opacity:0.5;">
	<path style="fill:#FFFFFF;" d="M299.733,315.761c0-14.091,10.444-25.621,23.981-27.573c-1.319-0.194-2.631-0.405-3.997-0.405
		c-15.449,0-27.979,12.521-27.979,27.979s12.529,27.979,27.979,27.979c1.366,0,2.678-0.211,3.997-0.406
		C310.177,341.382,299.733,329.852,299.733,315.761z"/>
</g>
<g style="opacity:0.2;">
	<path d="M339.741,315.761c0,14.091-10.444,25.621-23.981,27.572c1.319,0.195,2.631,0.406,3.997,0.406
		c15.449,0,27.979-12.521,27.979-27.979s-12.529-27.979-27.979-27.979c-1.366,0-2.678,0.211-3.997,0.405
		C329.296,290.14,339.741,301.67,339.741,315.761z"/>
</g>
<g style="opacity:0.5;">
	<path style="fill:#FFFFFF;" d="M95.909,243.82c0-14.091,10.445-25.621,23.981-27.573c-1.319-0.195-2.631-0.406-3.997-0.406
		c-15.448,0-27.979,12.522-27.979,27.979s12.53,27.975,27.979,27.975c1.366,0,2.678-0.211,3.997-0.406
		C106.354,269.437,95.909,257.91,95.909,243.82z"/>
</g>
<g style="opacity:0.2;">
	<path d="M135.917,243.82c0,14.09-10.445,25.617-23.981,27.569c1.319,0.195,2.63,0.406,3.996,0.406
		c15.449,0,27.979-12.519,27.979-27.975s-12.529-27.979-27.979-27.979c-1.366,0-2.677,0.21-3.996,0.406
		C125.472,218.199,135.917,229.729,135.917,243.82z"/>
</g>
<path style="fill:#E6E9ED;" d="M399.656,195.857h-79.9h-0.039h-79.899c-1.679,10.711-2.717,21.265-3.119,31.577l7.834,0.398h75.185
	h0.039h75.185l7.838-0.398C402.372,217.122,401.334,206.568,399.656,195.857z"/>
<path style="fill:#FFFFFF;" d="M255.805,195.857h-15.987c-1.679,10.711-2.717,21.265-3.119,31.577l7.834,0.398h15.988l-7.834-0.398
	C253.089,217.122,254.127,206.568,255.805,195.857z"/>
<g>
	<path style="fill:#3A3847;" d="M343.98,455.654c-2.209,0-4.036-1.788-4.036-3.997s1.749-3.997,3.95-3.997h0.086
		c2.201,0,3.997,1.788,3.997,3.997S346.181,455.654,343.98,455.654z"/>
	<path style="fill:#3A3847;" d="M335.986,431.672c-2.209,0-4.035-1.788-4.035-3.997s1.748-3.997,3.949-3.997h0.086
		c2.201,0,3.997,1.788,3.997,3.997S338.187,431.672,335.986,431.672z"/>
	<path style="fill:#3A3847;" d="M351.974,415.684c-2.209,0-4.036-1.787-4.036-3.996c0-2.21,1.749-3.998,3.95-3.998h0.086
		c2.201,0,3.996,1.788,3.996,3.998C355.97,413.897,354.175,415.684,351.974,415.684z"/>
</g>
<polygon style="fill:#E6E9ED;" points="87.934,4.004 143.891,4.004 147.888,27.986 143.891,27.986 87.934,27.986 83.938,27.986 "/>
<polygon style="fill:#FFFFFF;" points="87.934,4.004 83.938,27.986 87.934,27.986 99.925,27.986 103.922,4.004 "/>
<g style="opacity:0.2;">
	<polygon points="143.775,4.004 147.771,27.986 143.775,27.986 131.784,27.986 127.786,4.004 	"/>
</g>
<path style="fill:#965353;" d="M143.891,29.426c0,0,0,7.994,0,18.466c0,36.128,42.687,109.755,47.565,130.298l-7.596,1.679H47.965
	h-7.994c2.717-17.826,47.963-94.807,47.963-131.977c0-11.913,0-19.907,0-19.907h55.957V29.426z"/>
<g style="opacity:0.3;">
	<path style="fill:#FFFFFF;" d="M103.922,27.986H87.934c0,0,0,7.994,0,19.907c0,37.17-45.246,114.151-47.963,131.977h7.994h7.994
		c2.716-17.826,47.963-94.807,47.963-131.977C103.922,35.98,103.922,27.986,103.922,27.986z"/>
</g>
<g style="opacity:0.3;">
	<path d="M127.786,27.986h15.984c0,0,0,7.994,0,19.907c0,37.17,45.25,114.151,47.967,131.977h-7.994h-7.998
		c-2.716-17.826-47.959-94.807-47.959-131.977C127.786,35.98,127.786,27.986,127.786,27.986z"/>
</g>
<path style="fill:#965353;" d="M183.861,507.614H47.965c0,0-7.994-18.385-7.994-35.254c0-16.784,12.791-41.164,12.791-67.784
	c0-26.706-12.791-77.065-12.791-95.052c0-0.477,0-1.116,0-1.757h7.994h135.896h7.994c0,0.641,0,1.28,0,1.757
	c0,17.986-12.791,68.346-12.791,95.052c0,26.62,12.791,51,12.791,67.784C191.855,489.229,183.861,507.614,183.861,507.614z"/>
<g style="opacity:0.3;">
	<path style="fill:#FFFFFF;" d="M68.75,404.576c0-26.706-12.791-77.065-12.791-95.052c0-0.477,0-1.116,0-1.757h-7.994h-7.994
		c0,0.641,0,1.28,0,1.757c0,17.986,12.791,68.346,12.791,95.052c0,26.62-12.791,51-12.791,67.784
		c0,16.869,7.994,35.254,7.994,35.254h15.987c0,0-7.993-18.385-7.993-35.254C55.959,455.576,68.75,431.196,68.75,404.576z"/>
</g>
<g style="opacity:0.3;">
	<path d="M163.076,404.576c0-26.706,12.791-77.065,12.791-95.052c0-0.477,0-1.116,0-1.757h7.994h7.994c0,0.641,0,1.28,0,1.757
		c0,17.986-12.791,68.346-12.791,95.052c0,26.62,12.791,51,12.791,67.784c0,16.869-7.994,35.254-7.994,35.254h-15.987
		c0,0,7.993-18.385,7.993-35.254C175.867,455.576,163.076,431.196,163.076,404.576z"/>
</g>
<path style="fill:#E6E9ED;" d="M143.891,27.986H87.934c0,0,0,7.994,0,19.907c0,19.255-12.139,49.158-24.216,76.02h104.381
	c-12.068-26.854-24.208-56.753-24.208-76.02c0-10.472,0-18.466,0-18.466L143.891,27.986L143.891,27.986z"/>
<path style="fill:#FFFFFF;" d="M103.922,27.986H87.934c0,0,0,7.994,0,19.907c0,19.255-12.139,49.158-24.216,76.02h15.988
	c12.076-26.862,24.216-56.765,24.216-76.02C103.922,35.98,103.922,27.986,103.922,27.986z"/>
<g style="opacity:0.2;">
	<path d="M127.786,27.986h15.988c0,0,0,7.994,0,19.907c0,19.255,12.139,49.158,24.215,76.02h-15.987
		c-12.076-26.862-24.216-56.765-24.216-76.02C127.786,35.98,127.786,27.986,127.786,27.986z"/>
</g>
<path style="fill:#E6E9ED;" d="M255.805,507.614h127.902c0-6.503-0.344-11.569-0.866-15.988H256.672
	C256.145,496.044,255.805,501.111,255.805,507.614z"/>
<path style="fill:#FFFFFF;" d="M256.672,491.625c-0.527,4.419-0.867,9.485-0.867,15.988h15.988c0-6.503,0.343-11.569,0.866-15.988
	H256.672z"/>
<g style="opacity:0.3;">
	<path d="M386.415,227.832h8.143h7.846c4.114,84.549-27.112,155.627-27.112,199.843c0,49.884,7.994,47.963,7.994,79.938h-15.987
		c0-31.976-7.994-30.055-7.994-79.938C359.304,383.459,390.53,312.381,386.415,227.832z"/>
</g>
<g style="opacity:0.2;">
	<path d="M383.285,195.857h15.987c1.679,10.711,2.717,21.265,3.115,31.577l-7.83,0.398H378.57l7.829-0.398
		C386.002,217.122,384.964,206.568,383.285,195.857z"/>
</g>
<g style="opacity:0.2;">
	<path d="M382.419,491.625c0.53,4.419,0.866,9.485,0.866,15.988h-15.987c0-6.503-0.344-11.569-0.867-15.988H382.419z"/>
</g>
<g style="opacity:0.4;">
	<rect x="39.966" y="179.866" style="fill:#FFFFFF;" width="15.988" height="127.9"/>
</g>
<g>
	<path style="fill:#3A3847;" d="M90.577,259.808c-1.518,0-2.97-0.866-3.642-2.338c-1.986-4.36-2.997-8.95-2.997-13.65
		c0-12.506,7.006-23.572,18.282-28.876c1.999-0.96,4.376-0.086,5.32,1.913c0.937,1.998,0.082,4.379-1.916,5.32
		c-8.447,3.973-13.693,12.268-13.693,21.644c0,3.544,0.766,7.022,2.279,10.332c0.914,2.007,0.031,4.38-1.979,5.297
		C91.693,259.691,91.131,259.808,90.577,259.808z"/>
	<path style="fill:#3A3847;" d="M127.908,273.075c-1.495,0-2.932-0.843-3.614-2.279c-0.948-1.998-0.098-4.379,1.896-5.324
		c8.326-3.953,13.705-12.451,13.705-21.651c0-3.65-0.777-7.096-2.312-10.238c-0.968-1.983-0.144-4.375,1.839-5.343
		c1.99-0.976,4.383-0.145,5.344,1.838c2.072,4.243,3.122,8.868,3.122,13.744c0,12.268-7.17,23.595-18.271,28.865
		C129.063,272.95,128.482,273.075,127.908,273.075z"/>
	<path style="fill:#3A3847;" d="M123.907,255.811c-1.022,0-2.045-0.391-2.826-1.171l-15.987-15.988c-1.562-1.561-1.562-4.09,0-5.652
		s4.091-1.562,5.651,0l15.988,15.988c1.562,1.561,1.562,4.09,0,5.652C125.952,255.42,124.929,255.811,123.907,255.811z"/>
	<path style="fill:#3A3847;" d="M107.919,239.823c-1.022,0-2.046-0.39-2.826-1.171c-1.562-1.561-1.562-4.09,0-5.652l31.976-31.976
		c1.562-1.562,4.091-1.562,5.651,0c1.562,1.562,1.562,4.091,0,5.652l-31.976,31.975
		C109.964,239.433,108.942,239.823,107.919,239.823z"/>
	<path style="fill:#3A3847;" d="M91.931,287.783c-1.022,0-2.045-0.391-2.825-1.171c-1.562-1.562-1.562-4.091,0-5.652l31.975-31.971
		c1.562-1.561,4.091-1.561,5.652,0c1.561,1.561,1.562,4.09,0,5.652l-31.976,31.972C93.977,287.392,92.953,287.783,91.931,287.783z"
		/>
	<path style="fill:#3A3847;" d="M294.494,331.748c-1.491,0-2.92-0.835-3.606-2.271c-2.062-4.316-3.107-8.931-3.107-13.716
		c0-12.265,7.174-23.599,18.268-28.868c1.967-0.961,4.379-0.109,5.324,1.889c0.952,1.998,0.102,4.38-1.89,5.324
		c-8.454,4.021-13.708,12.318-13.708,21.655c0,3.583,0.78,7.033,2.326,10.266c0.952,1.99,0.109,4.38-1.881,5.332
		C295.658,331.623,295.072,331.748,294.494,331.748z"/>
	<path style="fill:#3A3847;" d="M331.747,345.02c-1.491,0-2.928-0.844-3.607-2.279c-0.952-1.999-0.102-4.38,1.89-5.324
		c8.454-4.021,13.708-12.318,13.708-21.655c0-3.653-0.78-7.097-2.311-10.234c-0.968-1.991-0.148-4.38,1.834-5.348
		c1.983-0.952,4.372-0.141,5.348,1.835c2.069,4.246,3.123,8.868,3.123,13.747c0,12.264-7.174,23.599-18.268,28.868
		C332.91,344.895,332.325,345.02,331.747,345.02z"/>
	<path style="fill:#3A3847;" d="M327.75,327.752c-1.022,0-2.046-0.391-2.826-1.172l-15.987-15.987c-1.562-1.562-1.562-4.091,0-5.651
		c1.561-1.562,4.09-1.562,5.651,0l15.987,15.987c1.562,1.562,1.562,4.091,0,5.651C329.795,327.362,328.773,327.752,327.75,327.752z"
		/>
	<path style="fill:#3A3847;" d="M311.762,311.764c-1.022,0-2.045-0.391-2.825-1.171c-1.562-1.562-1.562-4.091,0-5.651l31.975-31.977
		c1.562-1.561,4.091-1.561,5.652,0c1.562,1.562,1.562,4.091,0,5.652l-31.976,31.976
		C313.808,311.373,312.785,311.764,311.762,311.764z"/>
	<path style="fill:#3A3847;" d="M295.775,359.727c-1.022,0-2.045-0.39-2.826-1.171c-1.562-1.562-1.562-4.091,0-5.651l31.976-31.976
		c1.562-1.562,4.091-1.562,5.651,0c1.562,1.562,1.562,4.091,0,5.651l-31.975,31.976C297.82,359.337,296.797,359.727,295.775,359.727
		z"/>
	<path style="fill:#3A3847;" d="M47.969,511.611c-1.546,0-3.014-0.897-3.669-2.404c-0.34-0.78-8.326-19.345-8.326-36.847
		c0-7.979,2.525-16.964,5.449-27.37c3.442-12.248,7.342-26.128,7.342-40.414c0-14.317-3.864-36.159-7.275-55.434
		c-2.959-16.722-5.516-31.164-5.516-39.618V179.869c1.112-7.611,7.619-21.706,15.855-39.556
		c13.552-29.364,32.108-69.576,32.108-92.421V27.986c0-2.209,1.787-3.997,3.996-3.997c2.21,0,3.997,1.788,3.997,3.997v19.907
		c0,24.602-18.208,64.064-32.842,95.77c-7.658,16.589-14.271,30.918-15.168,36.808l0.047,129.054c0,7.76,2.619,22.561,5.395,38.229
		c3.466,19.594,7.396,41.804,7.396,56.823c0,15.387-4.06,29.837-7.643,42.577c-2.764,9.836-5.148,18.329-5.148,25.207
		c0,15.854,7.584,33.482,7.662,33.661c0.882,2.022-0.047,4.38-2.072,5.262C49.038,511.501,48.499,511.611,47.969,511.611z"/>
	<path style="fill:#3A3847;" d="M183.861,511.611c-0.531,0-1.073-0.109-1.593-0.328c-2.021-0.882-2.95-3.239-2.072-5.262
		c0.074-0.179,7.662-17.854,7.662-33.661c0-6.878-2.385-15.371-5.148-25.207c-3.583-12.74-7.643-27.19-7.643-42.577
		c0-15.02,3.931-37.229,7.396-56.823c2.775-15.668,5.395-30.469,5.395-38.229V179.869c-0.004,0.289-0.027,0.043-0.148-0.285
		c-1.729-7.155-7.916-20.574-15.082-36.117c-14.583-31.636-32.732-71.008-32.732-95.575V29.426c0-2.209,1.787-3.997,3.996-3.997
		c2.21,0,3.997,1.788,3.997,3.997v18.466c0,22.814,18.494,62.932,31.999,92.23c7.646,16.585,13.685,29.685,15.457,37.144
		c0.191,0.421,0.332,1.202,0.441,1.881l0.066,130.377c0,8.454-2.557,22.896-5.516,39.618c-3.411,19.274-7.275,41.116-7.275,55.434
		c0,14.286,3.899,28.166,7.342,40.414c2.924,10.406,5.449,19.392,5.449,27.37c0,17.502-7.986,36.066-8.326,36.847
		C186.87,510.713,185.403,511.611,183.861,511.611z"/>
	<path style="fill:#3A3847;" d="M147.888,31.983h-63.95c-2.21,0-3.997-1.788-3.997-3.997s1.787-3.997,3.997-3.997h63.95
		c2.21,0,3.997,1.788,3.997,3.997S150.098,31.983,147.888,31.983z"/>
	<path style="fill:#3A3847;" d="M83.942,31.983c-0.219,0-0.438-0.016-0.66-0.055c-2.178-0.363-3.649-2.42-3.286-4.598l3.997-23.982
		c0.362-2.178,2.432-3.673,4.598-3.287c2.178,0.363,3.649,2.42,3.286,4.598L87.88,28.641C87.556,30.597,85.862,31.983,83.942,31.983
		z"/>
	<path style="fill:#3A3847;" d="M147.884,31.983c-1.92,0-3.614-1.386-3.938-3.341L139.95,4.66c-0.363-2.178,1.108-4.235,3.286-4.598
		c2.17-0.382,4.235,1.108,4.598,3.287l3.997,23.982c0.363,2.178-1.108,4.235-3.286,4.598
		C148.322,31.967,148.103,31.983,147.884,31.983z"/>
	<path style="fill:#3A3847;" d="M143.891,8.001H87.934c-2.209,0-3.996-1.788-3.996-3.997s1.787-3.997,3.996-3.997h55.957
		c2.21,0,3.997,1.788,3.997,3.997S146.101,8.001,143.891,8.001z"/>
	<path style="fill:#3A3847;" d="M183.861,511.611H47.965c-2.209,0-3.997-1.788-3.997-3.997s1.788-3.997,3.997-3.997h135.896
		c2.209,0,3.997,1.788,3.997,3.997S186.07,511.611,183.861,511.611z"/>
	<path style="fill:#3A3847;" d="M183.861,183.866H47.965c-2.209,0-3.997-1.788-3.997-3.997s1.788-3.997,3.997-3.997h135.896
		c2.209,0,3.997,1.788,3.997,3.997C187.858,182.078,186.07,183.866,183.861,183.866z"/>
	<path style="fill:#3A3847;" d="M183.861,311.764H47.965c-2.209,0-3.997-1.787-3.997-3.997c0-2.209,1.788-3.997,3.997-3.997h135.896
		c2.209,0,3.997,1.788,3.997,3.997C187.858,309.977,186.07,311.764,183.861,311.764z"/>
	<path style="fill:#3A3847;" d="M63.949,503.617c-1.736,0-3.337-1.14-3.841-2.896c-0.604-2.124,0.625-4.341,2.748-4.942
		c1.163-0.335,28.795-8.149,53.057-8.149c24.263,0,51.895,7.814,53.058,8.149c2.123,0.602,3.353,2.818,2.748,4.942
		c-0.613,2.107-2.822,3.364-4.942,2.739c-0.276-0.078-27.74-7.837-50.863-7.837c-23.153,0-50.586,7.759-50.863,7.837
		C64.683,503.57,64.316,503.617,63.949,503.617z"/>
	<path style="fill:#3A3847;" d="M87.934,439.666c-2.209,0-3.996-1.788-3.996-3.998v-63.95c0-2.209,1.787-3.997,3.996-3.997
		c2.21,0,3.997,1.788,3.997,3.997v63.95C91.931,437.878,90.144,439.666,87.934,439.666z"/>
	<path style="fill:#3A3847;" d="M115.912,439.666c-2.209,0-3.996-1.788-3.996-3.998v-63.95c0-2.209,1.787-3.997,3.996-3.997
		c2.21,0,3.997,1.788,3.997,3.997v63.95C119.91,437.878,118.122,439.666,115.912,439.666z"/>
	<path style="fill:#3A3847;" d="M143.891,439.666c-2.209,0-3.996-1.788-3.996-3.998v-63.95c0-2.209,1.787-3.997,3.996-3.997
		c2.21,0,3.997,1.788,3.997,3.997v63.95C147.888,437.878,146.101,439.666,143.891,439.666z"/>
	<path style="fill:#3A3847;" d="M255.805,511.611c-2.209,0-3.996-1.788-3.996-3.997c0-14.629,1.662-22.537,3.423-30.906
		c2.143-10.195,4.57-21.74,4.57-49.032c0-17.065-4.848-38.572-10.464-63.467c-8.564-37.963-19.22-85.208-16.632-136.973
		c0.405-10.425,1.471-21.203,3.161-31.999c0.34-2.178,2.35-3.654,4.571-3.33c2.178,0.344,3.669,2.389,3.329,4.571
		c-1.644,10.484-2.678,20.952-3.076,31.112c-2.533,50.723,7.99,97.375,16.444,134.861c5.719,25.363,10.66,47.269,10.66,65.224
		c0,28.119-2.521,40.102-4.746,50.68c-1.741,8.29-3.248,15.457-3.248,29.259C259.802,509.823,258.015,511.611,255.805,511.611z"/>
	<path style="fill:#3A3847;" d="M383.707,511.611c-2.21,0-3.997-1.788-3.997-3.997c0-13.802-1.507-20.969-3.248-29.259
		c-2.225-10.578-4.746-22.561-4.746-50.68c0-18.002,4.957-39.962,10.688-65.388c10.336-45.824,23.201-102.854,13.341-165.813
		c-0.343-2.178,1.147-4.224,3.334-4.567c2.123-0.324,4.215,1.144,4.566,3.334c10.094,64.462-2.959,122.316-13.442,168.804
		c-5.629,24.965-10.492,46.519-10.492,63.631c0,27.292,2.428,38.837,4.574,49.032c1.757,8.369,3.42,16.277,3.42,30.906
		C387.704,509.823,385.916,511.611,383.707,511.611z"/>
	<path style="fill:#3A3847;" d="M383.707,511.611H255.805c-2.209,0-3.996-1.788-3.996-3.997s1.787-3.997,3.996-3.997h127.902
		c2.209,0,3.997,1.788,3.997,3.997S385.916,511.611,383.707,511.611z"/>
	<path style="fill:#3A3847;" d="M399.695,199.854H239.818c-2.209,0-3.997-1.788-3.997-3.997s1.788-3.997,3.997-3.997h159.877
		c2.209,0,3.997,1.788,3.997,3.997C403.692,198.066,401.904,199.854,399.695,199.854z"/>
	<path style="fill:#3A3847;" d="M394.902,231.829H244.533c-2.209,0-3.997-1.788-3.997-3.997s1.788-3.997,3.997-3.997h150.369
		c2.209,0,3.997,1.788,3.997,3.997S397.111,231.829,394.902,231.829z"/>
	<path style="fill:#3A3847;" d="M351.732,231.829c-0.336,0-0.688-0.043-1.03-0.137c-2.14-0.57-3.404-2.76-2.834-4.895
		l31.976-119.904c0.562-2.127,2.748-3.399,4.895-2.833c2.131,0.57,3.403,2.759,2.834,4.895l-31.977,119.912
		C355.112,230.651,353.495,231.829,351.732,231.829z"/>
	<path style="fill:#3A3847;" d="M383.707,111.921c-1.632,0-3.17-1.007-3.755-2.631c-0.758-2.076,0.313-4.367,2.389-5.121
		l87.933-31.975c2.076-0.761,4.371,0.316,5.12,2.389c0.758,2.077-0.312,4.368-2.389,5.121l-87.932,31.976
		C384.62,111.843,384.16,111.921,383.707,111.921z"/>
	<path style="fill:#3A3847;" d="M367.719,495.623h-95.926c-2.21,0-3.997-1.788-3.997-3.998c0-2.209,1.787-3.996,3.997-3.996h95.926
		c2.21,0,3.997,1.787,3.997,3.996C371.716,493.835,369.929,495.623,367.719,495.623z"/>
	<path style="fill:#3A3847;" d="M167.873,127.909H63.952c-2.209,0-3.997-1.788-3.997-3.997s1.788-3.997,3.997-3.997h103.921
		c2.209,0,3.996,1.788,3.996,3.997C171.869,126.121,170.082,127.909,167.873,127.909z"/>
</g>
<g style="opacity:0.3;">
	<rect x="175.866" y="179.866" width="15.988" height="127.9"/>
</g>
<g>
</g>
<g>
</g>
<g>
</g>
<g>
</g>
<g>
</g>
<g>
</g>
<g>
</g>
<g>
</g>
<g>
</g>
<g>
</g>
<g>
</g>
<g>
</g>
<g>
</g>
<g>
</g>
<g>
</g>
</svg>
